<?xml version="1.0" standalone="no"?><svg xmlns="http://www.w3.org/2000/svg" viewBox="0 0 1440 320"><path fill="#a50000" fill-opacity="1" d="M0,32L30,26.7C60,21,120,11,180,53.3C240,96,300,192,360,218.7C420,245,480,203,540,165.3C600,128,660,96,720,101.3C780,107,840,149,900,186.7C960,224,1020,256,1080,234.7C1140,213,1200,139,1260,106.7C1320,75,1380,85,1410,90.7L1440,96L1440,0L1410,0C1380,0,1320,0,1260,0C1200,0,1140,0,1080,0C1020,0,960,0,900,0C840,0,780,0,720,0C660,0,600,0,540,0C480,0,420,0,360,0C300,0,240,0,180,0C120,0,60,0,30,0L0,0Z"></path></svg>