<?xml version="1.0" standalone="no"?><svg xmlns="http://www.w3.org/2000/svg" viewBox="0 0 1440 320"><path fill="#a50000" fill-opacity="1" d="M0,32L30,26.7C60,21,120,11,180,53.3C240,96,300,192,360,218.7C420,245,480,203,540,165.3C600,128,660,96,720,101.3C780,107,840,149,900,186.7C960,224,1020,256,1080,234.7C1140,213,1200,139,1260,106.7C1320,75,1380,85,1410,90.7L1440,96L1440,320L1410,320C1380,320,1320,320,1260,320C1200,320,1140,320,1080,320C1020,320,960,320,900,320C840,320,780,320,720,320C660,320,600,320,540,320C480,320,420,320,360,320C300,320,240,320,180,320C120,320,60,320,30,320L0,320Z"></path></svg>